<svg xmlns="http://www.w3.org/2000/svg" viewBox="0 0 320 320" version="1.1">
  <metadata>
    <rdf:RDF xmlns:rdf="http://www.w3.org/1999/02/22-rdf-syntax-ns#"
             xmlns:cc="http://creativecommons.org/ns#"
             xmlns:dc="http://purl.org/dc/elements/1.1/">
      <cc:Work rdf:about="">
        <dc:format>image/svg+xml</dc:format>
        <dc:type rdf:resource="http://purl.org/dc/dcmitype/StillImage" />
        <dc:title>Official Logo</dc:title>
        <dc:date>2026</dc:date>
        <dc:creator>
          <cc:Agent>
            <dc:title>Harsh Mohan</dc:title>
          </cc:Agent>
        </dc:creator>
        <dc:rights>
          <cc:Agent>
            <dc:title>Harsh Mohan</dc:title>
          </cc:Agent>
        </dc:rights>
        <dc:relation>https://harsh.fr/</dc:relation>
        <cc:license rdf:resource="http://creativecommons.org/licenses/by-nc/4.0/" />
      </cc:Work>
      <cc:License rdf:about="http://creativecommons.org/licenses/by-nc/4.0/">
        <cc:permits rdf:resource="http://creativecommons.org/ns#Reproduction" />
        <cc:permits rdf:resource="http://creativecommons.org/ns#Distribution" />
        <cc:requires rdf:resource="http://creativecommons.org/ns#Notice" />
        <cc:requires rdf:resource="http://creativecommons.org/ns#Attribution" />
        <cc:prohibits rdf:resource="http://creativecommons.org/ns#CommercialUse" />
      </cc:License>
    </rdf:RDF>
  </metadata>
  <path fill="black" stroke="none" fill-rule="evenodd" d="M 162.400,99.525 L 160.500,98.775 L 159.550,98.225 L 158.200,97.775 L 157.100,97.125 L 156.300,96.875 L 151.900,94.725 L 145.050,90.825 L 137.900,85.775 L 134.250,82.775 L 132.075,80.700 L 129.075,77.550 L 127.075,75.200 L 124.225,71.400 L 122.175,68.250 L 120.075,64.350 L 118.175,60.000 L 117.075,56.800 L 116.125,53.200 L 115.425,48.600 L 115.175,45.850 L 115.175,42.200 L 115.825,37.100 L 116.225,35.000 L 116.875,33.300 L 117.175,31.950 L 118.225,29.450 L 120.225,25.650 L 122.275,22.600 L 124.275,20.150 L 127.300,17.075 L 130.750,14.225 L 133.900,12.175 L 137.700,10.225 L 140.550,9.125 L 144.150,8.125 L 149.750,7.525 L 152.800,7.625 L 155.350,7.975 L 156.700,7.975 L 160.550,7.525 L 165.300,7.525 L 171.750,8.175 L 176.600,9.225 L 180.200,10.275 L 185.500,12.275 L 189.500,14.275 L 192.550,16.175 L 196.050,19.025 L 198.025,21.200 L 198.825,22.300 L 199.725,24.000 L 200.325,26.850 L 200.125,28.800 L 200.550,29.425 L 201.400,29.725 L 203.150,29.975 L 205.200,29.975 L 207.550,29.675 L 208.225,29.850 L 208.125,30.250 L 206.825,31.350 L 206.825,31.650 L 207.125,32.050 L 208.475,33.300 L 208.525,33.600 L 208.150,33.775 L 203.450,32.025 L 200.100,30.975 L 199.450,30.925 L 199.000,31.125 L 197.400,32.675 L 195.750,33.775 L 193.500,34.825 L 190.800,35.625 L 188.650,36.025 L 183.750,36.475 L 178.700,36.325 L 172.350,35.575 L 168.400,34.675 L 162.200,32.725 L 157.950,30.875 L 155.650,29.675 L 152.400,27.625 L 149.500,25.375 L 148.800,25.125 L 147.750,25.075 L 146.200,25.275 L 143.350,26.075 L 141.050,27.225 L 139.350,28.375 L 137.400,30.075 L 135.025,32.950 L 134.175,34.250 L 133.175,36.350 L 132.325,39.300 L 132.075,41.650 L 132.125,44.850 L 133.125,49.850 L 134.125,52.600 L 135.225,54.900 L 137.125,58.100 L 139.125,60.800 L 141.575,63.550 L 145.000,66.775 L 147.500,68.725 L 150.600,70.775 L 153.350,72.225 L 154.200,72.825 L 157.200,74.175 L 158.300,74.825 L 160.700,75.775 L 162.150,76.175 L 162.625,76.450 L 162.975,77.000 L 163.075,98.600 L 162.875,99.250 L 162.400,99.525 Z M 177.425,21.850 L 178.050,21.775 L 178.750,21.425 L 179.275,20.900 L 179.475,20.450 L 179.425,20.000 L 179.075,19.350 L 177.900,18.275 L 175.650,17.375 L 174.700,17.225 L 173.350,17.325 L 172.125,18.100 L 171.975,18.450 L 172.025,19.250 L 172.325,19.750 L 173.350,20.675 L 175.850,21.725 L 177.425,21.850 Z M 206.250,299.375 L 171.000,299.325 L 170.350,299.025 L 170.075,298.400 L 170.125,249.450 L 169.925,248.900 L 169.600,248.575 L 169.000,248.425 L 127.800,248.475 L 118.750,247.925 L 112.350,246.775 L 110.650,246.175 L 109.000,245.825 L 103.450,243.725 L 99.300,241.625 L 96.250,239.775 L 93.450,237.825 L 91.000,235.825 L 87.750,232.825 L 85.075,230.000 L 82.225,226.600 L 78.225,220.850 L 76.175,217.350 L 74.125,213.300 L 72.175,208.850 L 71.675,207.200 L 71.175,206.150 L 69.225,200.000 L 68.675,197.250 L 68.125,195.550 L 67.075,189.950 L 66.175,183.400 L 65.725,175.500 L 65.675,166.050 L 65.875,161.700 L 66.225,156.850 L 67.175,150.400 L 67.825,147.850 L 68.275,145.250 L 70.225,138.450 L 72.175,133.250 L 75.175,127.000 L 77.225,123.500 L 80.175,119.150 L 84.125,114.300 L 87.300,111.025 L 90.400,108.275 L 94.350,105.275 L 99.250,102.325 L 103.850,100.175 L 109.550,98.175 L 113.950,97.125 L 120.100,96.175 L 123.800,95.975 L 129.600,95.975 L 133.850,96.275 L 138.800,97.175 L 142.650,98.225 L 147.650,100.175 L 153.100,103.175 L 155.950,105.175 L 159.550,108.125 L 163.725,112.350 L 167.875,117.550 L 168.300,117.825 L 168.675,117.650 L 168.725,50.050 L 168.925,49.300 L 169.500,48.925 L 206.200,48.925 L 206.750,49.125 L 207.075,49.600 L 207.125,154.600 L 206.975,155.150 L 206.250,155.825 L 203.500,156.775 L 198.700,157.875 L 193.500,158.575 L 187.950,158.975 L 179.100,159.325 L 170.850,159.925 L 169.850,159.875 L 169.500,159.725 L 169.125,159.200 L 168.725,156.750 L 166.775,150.300 L 164.925,146.100 L 163.775,144.000 L 161.825,141.000 L 159.625,138.250 L 157.450,136.075 L 155.200,134.225 L 152.150,132.275 L 149.950,131.225 L 146.850,130.125 L 143.300,129.325 L 139.700,128.975 L 134.900,129.025 L 132.200,129.325 L 128.450,130.175 L 125.400,131.275 L 123.400,132.225 L 120.250,134.175 L 117.750,136.275 L 115.125,139.000 L 113.275,141.350 L 111.275,144.550 L 109.075,149.150 L 108.675,150.550 L 108.125,151.700 L 107.125,155.050 L 106.675,157.550 L 106.275,158.750 L 105.275,166.550 L 105.025,172.250 L 105.075,176.850 L 105.275,179.950 L 106.125,186.900 L 107.225,191.750 L 108.175,194.850 L 109.225,197.500 L 111.175,201.500 L 112.325,203.400 L 114.175,205.950 L 116.600,208.675 L 120.300,211.825 L 123.200,213.575 L 125.400,214.625 L 129.100,215.875 L 134.600,216.825 L 141.400,216.825 L 147.000,215.825 L 150.150,214.775 L 154.000,212.875 L 155.750,211.725 L 158.150,209.775 L 159.625,208.350 L 161.875,205.750 L 164.875,201.250 L 165.200,200.925 L 165.850,200.675 L 173.900,200.275 L 185.000,200.275 L 194.800,200.025 L 199.750,199.725 L 206.550,198.875 L 207.175,199.200 L 207.425,199.750 L 207.575,215.700 L 207.725,216.350 L 208.200,216.775 L 252.500,216.825 L 253.050,217.025 L 253.325,217.300 L 253.475,217.650 L 253.475,247.350 L 253.275,247.950 L 252.900,248.325 L 252.200,248.525 L 208.600,248.475 L 208.150,248.625 L 207.725,249.050 L 207.575,249.500 L 207.625,298.450 L 207.200,299.075 L 206.250,299.375 Z M 134.500,208.375 L 131.500,207.925 L 128.300,206.875 L 126.350,205.875 L 124.550,204.675 L 122.550,202.925 L 121.175,201.450 L 119.175,198.750 L 118.275,197.250 L 117.975,196.400 L 118.175,195.350 L 120.075,192.100 L 122.175,189.150 L 124.225,186.700 L 126.450,184.425 L 129.100,182.075 L 131.400,180.275 L 134.500,178.175 L 140.300,175.075 L 144.700,173.225 L 150.900,171.225 L 153.450,170.725 L 155.200,170.175 L 157.650,169.825 L 159.400,169.375 L 170.300,168.125 L 180.600,167.675 L 193.650,166.875 L 201.550,165.775 L 205.650,164.775 L 207.000,164.225 L 208.850,163.725 L 213.200,161.775 L 217.700,158.925 L 220.075,156.750 L 221.825,154.700 L 222.675,153.450 L 223.725,151.250 L 224.625,147.400 L 224.675,143.800 L 223.775,138.950 L 222.825,136.200 L 221.625,133.650 L 218.875,129.200 L 216.775,126.600 L 214.625,124.550 L 214.175,123.550 L 214.175,94.700 L 214.325,94.350 L 214.550,94.175 L 215.400,94.325 L 217.500,95.625 L 220.600,97.225 L 223.550,99.075 L 229.350,103.275 L 233.750,107.125 L 237.625,111.200 L 240.675,115.100 L 243.825,120.000 L 245.825,123.850 L 247.725,128.400 L 248.175,130.050 L 248.775,131.500 L 249.925,136.250 L 250.675,141.550 L 250.825,146.200 L 250.625,149.800 L 249.875,154.550 L 248.725,158.700 L 246.775,163.450 L 244.775,167.100 L 241.675,171.500 L 238.975,174.500 L 235.600,177.675 L 232.900,179.775 L 230.050,181.725 L 226.700,183.725 L 220.100,186.775 L 214.400,188.725 L 210.100,189.825 L 203.800,190.925 L 195.000,191.775 L 187.550,191.975 L 171.900,192.025 L 166.400,192.275 L 158.650,193.175 L 156.800,193.675 L 154.450,194.075 L 151.050,195.075 L 148.150,196.175 L 146.000,197.225 L 144.400,198.125 L 141.400,200.275 L 140.350,201.175 L 138.275,203.400 L 136.275,206.250 L 135.625,207.650 L 135.000,208.225 L 134.500,208.375 Z M 162.350,279.125 L 160.400,278.175 L 159.050,277.775 L 157.900,277.175 L 156.550,276.725 L 150.350,273.775 L 145.250,270.875 L 141.950,268.775 L 137.650,265.675 L 134.150,262.825 L 128.875,257.850 L 128.675,257.500 L 128.725,257.100 L 129.300,256.775 L 153.950,256.825 L 154.900,257.175 L 157.350,258.875 L 160.400,260.675 L 162.250,261.525 L 162.875,262.050 L 163.075,262.550 L 163.075,278.400 L 162.925,278.800 L 162.350,279.125 Z M 250.100,312.475 L 248.450,312.125 L 247.650,311.675 L 247.125,311.150 L 246.225,309.600 L 245.775,307.950 L 244.675,305.650 L 242.925,303.000 L 240.350,300.125 L 236.550,297.075 L 232.850,294.975 L 228.700,293.225 L 221.550,291.175 L 218.200,290.625 L 215.250,290.025 L 214.650,289.775 L 214.275,289.150 L 214.275,279.350 L 214.425,278.950 L 214.800,278.625 L 215.350,278.575 L 218.700,279.325 L 225.500,281.225 L 226.400,281.675 L 228.450,282.275 L 230.900,283.225 L 235.350,285.325 L 238.500,287.125 L 241.550,289.225 L 243.650,290.975 L 246.775,294.150 L 248.675,296.500 L 250.825,299.900 L 251.775,301.800 L 252.725,304.200 L 253.725,308.000 L 253.675,309.600 L 253.225,310.550 L 252.400,311.575 L 251.350,312.175 L 250.100,312.475 Z "/>
</svg>